<svg width="432" height="270" fill="none" xmlns="http://www.w3.org/2000/svg"><rect x="67" y="26" width="297" height="218" rx="16" fill="#193154"/><path fill="#63E6BE" d="M70 38h267v196H70z"/><path fill-rule="evenodd" clip-rule="evenodd" d="M98 58v162h229V58H98zm-8-24c-8.837 0-16 7.163-16 16v178c0 8.837 7.163 16 16 16h245c8.837 0 16-7.163 16-16V50c0-8.837-7.163-16-16-16H90z" fill="#193154"/><mask id="a" fill="#fff"><rect x="67" y="26" width="284" height="218" rx="16"/></mask><rect x="67" y="26" width="284" height="218" rx="16" stroke="#515F7C" stroke-width="48" mask="url(#a)"/><mask id="b" fill="#fff"><path fill-rule="evenodd" clip-rule="evenodd" d="M295.421 75.513c-.932-3.02-3.471-5.513-6.632-5.513H135.211c-3.16 0-5.699 2.493-6.631 5.513-1.83 5.932-5.879 10.774-11.087 13.387C114.99 90.155 113 92.5 113 95.3v83.062c0 2.8 1.99 5.146 4.493 6.402 4.844 2.43 8.684 6.787 10.67 12.156 1.042 2.817 3.504 5.079 6.507 5.079h154.66c3.004 0 5.465-2.262 6.507-5.079 1.986-5.369 5.826-9.726 10.67-12.156 2.503-1.256 4.493-3.602 4.493-6.402V95.301c0-2.8-1.99-5.146-4.493-6.402-5.208-2.612-9.257-7.454-11.086-13.386z"/></mask><path d="M306.507 88.9l-3.587 7.15 3.587-7.15zm0 95.865l-3.587-7.151 3.587 7.151zm-10.67 12.156l7.503 2.775-7.503-2.775zm-178.344-12.156l3.587-7.151-3.587 7.151zM135.211 78h153.578V62H135.211v16zM121.08 96.05c7.256-3.64 12.705-10.27 15.144-18.178l-15.289-4.717c-1.22 3.955-3.868 7.008-7.029 8.594l7.174 14.301zm-.08 82.313V95.301h-16v83.062h16zm14.666 15.783c-2.652-7.172-7.837-13.146-14.586-16.532l-7.174 14.301c2.938 1.474 5.435 4.215 6.754 7.781l15.006-5.55zM289.33 194H134.67v16h154.66v-16zm14.01 5.696c1.319-3.566 3.816-6.306 6.754-7.781l-7.174-14.301c-6.749 3.386-11.934 9.36-14.586 16.532l15.006 5.55zM303 95.301v83.062h16V95.301h-16zm-15.224-17.43c2.439 7.909 7.889 14.54 15.144 18.18l7.174-14.302c-3.161-1.586-5.809-4.64-7.029-8.594l-15.289 4.717zM319 95.302c0-6.815-4.713-11.449-8.906-13.552L302.92 96.05c.118.06.213.124.281.18.069.055.083.08.064.054a1.175 1.175 0 0 1-.151-.302A2.047 2.047 0 0 1 303 95.3h16zm-8.906 96.614c4.193-2.103 8.906-6.737 8.906-13.552h-16c0-.261.048-.496.114-.68a1.18 1.18 0 0 1 .151-.303c.019-.026.005-.001-.064.055a1.51 1.51 0 0 1-.281.179l7.174 14.301zM289.33 210c7.304 0 12.177-5.345 14.01-10.304l-15.006-5.55a.805.805 0 0 1-.092.18c-.03.043-.035.037.01 0 .047-.038.162-.121.357-.195.203-.078.453-.131.721-.131v16zm-168.67-10.304c1.834 4.959 6.707 10.304 14.01 10.304v-16c.268 0 .518.053.721.131.195.074.31.157.357.195.045.037.04.043.01 0a.85.85 0 0 1-.092-.18l-15.006 5.55zM105 178.363c0 6.815 4.713 11.449 8.906 13.552l7.174-14.301a1.564 1.564 0 0 1-.281-.179c-.069-.056-.083-.081-.064-.055.021.028.088.126.151.302.066.185.114.42.114.681h-16zm8.906-96.614C109.713 83.852 105 88.486 105 95.3h16c0 .261-.048.496-.114.68-.063.178-.13.276-.151.304-.019.026-.005 0 .064-.056.068-.055.163-.12.281-.179l-7.174-14.301zM288.789 78c-.279 0-.54-.058-.752-.143a1.273 1.273 0 0 1-.358-.207c-.04-.035-.029-.034.005.019a.862.862 0 0 1 .092.203l15.289-4.717C301.436 67.875 296.485 62 288.789 62v16zM135.211 62c-7.695 0-12.647 5.876-14.276 11.155l15.289 4.717a.861.861 0 0 1 .093-.203c.033-.053.044-.053.004-.019a1.273 1.273 0 0 1-.358.207 2.04 2.04 0 0 1-.752.143V62z" fill="#0CA678" mask="url(#b)"/><path d="M144.832 117.384c1.568 0 2.752-1.184 2.752-2.784v-4.16h2.784c4.768 0 8.16-3.04 8.16-7.296 0-4.32-3.328-7.264-8.16-7.264h-5.504c-1.6 0-2.784 1.184-2.784 2.784V114.6c0 1.6 1.184 2.784 2.752 2.784zm2.752-11.744v-4.96h2.816c1.536 0 2.528.992 2.528 2.464 0 1.504-.992 2.496-2.528 2.496h-2.816zm30.286 7.136l-2.784-3.936c1.792-1.312 2.848-3.328 2.848-5.728 0-4.288-3.328-7.232-8.16-7.232h-5.504c-1.6 0-2.784 1.184-2.784 2.784V114.6c0 1.6 1.184 2.784 2.752 2.784 1.568 0 2.752-1.184 2.752-2.784v-4.16h2.88l3.712 5.568c.608.928 1.44 1.376 2.464 1.376 1.376 0 2.592-1.152 2.592-2.496 0-.672-.256-1.376-.768-2.112zm-10.88-12.096h2.816c1.536 0 2.528.992 2.528 2.464 0 1.504-.992 2.496-2.528 2.496h-2.816v-4.96zm25.175-5.184c-6.368 0-11.36 4.8-11.36 10.944 0 6.144 4.96 10.944 11.36 10.944 6.4 0 11.424-4.8 11.424-10.944 0-6.112-5.024-10.944-11.424-10.944zm.032 5.056c3.36 0 5.76 2.464 5.76 5.888 0 3.456-2.368 5.888-5.76 5.888-3.456 0-5.76-2.368-5.76-5.888 0-3.488 2.336-5.888 5.76-5.888z" fill="#fff"/><path d="M144 131a4 4 0 0 0 0 8v-8zm100 8a4 4 0 0 0 0-8v8zm-100 0h100v-8H144v8zM144 149a4 4 0 0 0 0 8v-8zm100 8a4 4 0 0 0 0-8v8zm-100 0h100v-8H144v8zM144 166a4 4 0 0 0 0 8v-8zm100 8a4 4 0 0 0 0-8v8zm-100 0h100v-8H144v8zM233 96a4 4 0 0 0 0 8v-8zm46 8a4 4 0 0 0 0-8v8zm-46 0h46v-8h-46v8z" fill="#0CA678"/><path d="M245 209h25.5v43l-25.5 9v-52z" fill="#E03131"/><path d="M270.5 209H296v52l-25.5-9v-43z" fill="#C11C1C"/><path d="M277.436 122.443l2.541-2.657c1.378-1.18 2.952-1.771 4.723-1.377 1.574.59 2.952 1.771 3.345 3.542l.979 3.794 3.503-2.128c1.643-.787 3.324-.951 4.94-.109 1.374.983 2.403 2.486 2.325 4.307l-.037 3.989 3.639-.998c1.574-.59 3.345 0 4.526 1.181 1.181 1.18 1.771 2.951 1.181 4.526l-1.072 3.909 4.353-.026c1.68-.163 3.245.87 4.084 2.322.838 1.453.951 3.325-.031 4.699l-2.06 3.52 3.581.925c1.771.393 2.951 1.771 3.542 3.345.393 1.574-.197 3.345-1.378 4.526l-2.825 2.764 3.741 2.113c1.616.843 2.403 2.486 2.567 4.167-.028 1.63-1.061 3.194-2.513 4.033l-3.622 2.038 2.652 2.595a5.126 5.126 0 0 1 1.378 4.723c-.591 1.574-1.771 2.951-3.542 3.345l-3.577.923 2.107 3.559a5.146 5.146 0 0 1 .108 4.94c-.982 1.374-2.485 2.403-4.306 2.325l-4.186-.039.999 3.641c.59 1.574 0 3.345-1.181 4.526-1.181 1.18-2.952 1.771-4.526 1.18l-3.713-1.017.025 4.298c.164 1.681-.869 3.246-2.322 4.085-1.452.838-3.324.951-4.698-.031l-3.691-2.16-.95 3.681c-.393 1.771-1.771 2.951-3.345 3.542-1.771.393-3.345-.197-4.723-1.378l-2.494-2.607-1.991 3.523c-.842 1.616-2.485 2.403-4.166 2.567-1.821-.079-3.195-1.061-4.224-2.565l-1.988-3.627-2.65 2.709c-1.378 1.181-2.952 1.771-4.723 1.378-1.574-.591-2.952-1.771-3.345-3.542l-.897-3.477-3.389 2.006c-1.643.788-3.324.951-4.94.109-1.374-.982-2.404-2.486-2.325-4.306l.039-4.24-3.837 1.052c-1.574.591-3.345 0-4.526-1.18-1.181-1.181-1.771-2.952-1.181-4.526l1.018-3.712-4.103.024c-1.68.164-3.245-.869-4.084-2.322-.838-1.452-.951-3.324.031-4.698l2.134-3.647-3.851-.994c-1.771-.394-2.952-1.771-3.542-3.345a5.126 5.126 0 0 1 1.377-4.723l2.643-2.585-3.362-1.9c-1.616-.842-2.403-2.485-2.567-4.166a5.148 5.148 0 0 1 2.564-4.224l3.596-2.024-2.874-2.811c-1.18-1.181-1.771-2.952-1.377-4.526.59-1.574 1.771-2.952 3.542-3.345l3.789-.978-2.072-3.499c-.838-1.453-.95-3.324-.159-4.749.982-1.374 2.485-2.404 4.306-2.325l4.043.037-1.052-3.835c-.59-1.575 0-3.346 1.181-4.526 1.181-1.181 2.952-1.771 4.526-1.181l3.908 1.072-.024-4.157c-.164-1.681.869-3.245 2.322-4.084 1.452-.839 3.324-.951 4.698.031l3.477 2.034.968-3.751c.393-1.771 1.771-2.952 3.345-3.542 1.771-.394 3.345.197 4.723 1.377l2.709 2.77 1.972-3.489c.842-1.616 2.485-2.403 4.166-2.567 1.821.079 3.195 1.061 4.224 2.564l1.901 3.379z" fill="#FAB005"/><path d="M274.402 122.158l2.541-2.656c1.377-1.181 2.952-1.771 4.723-1.377 1.574.59 2.951 1.771 3.345 3.542l.979 3.793 3.503-2.127c1.643-.787 3.324-.951 4.94-.109 1.374.982 2.403 2.486 2.325 4.307l-.037 3.989 3.639-.998c1.574-.59 3.345 0 4.526 1.181 1.18 1.18 1.771 2.951 1.18 4.525l-1.071 3.909 4.352-.025c1.681-.163 3.246.87 4.085 2.322.838 1.453.951 3.325-.031 4.698l-2.061 3.521 3.582.924c1.771.394 2.951 1.771 3.542 3.346.393 1.574-.197 3.345-1.378 4.526l-2.825 2.763 3.741 2.114c1.616.842 2.403 2.486 2.567 4.167-.028 1.629-1.061 3.194-2.513 4.033l-3.622 2.038 2.652 2.595a5.125 5.125 0 0 1 1.378 4.723c-.591 1.574-1.771 2.951-3.542 3.345l-3.578.923 2.107 3.559a5.146 5.146 0 0 1 .109 4.94c-.982 1.374-2.486 2.403-4.306 2.325l-4.186-.039.998 3.641c.591 1.574 0 3.345-1.18 4.526-1.181 1.18-2.952 1.771-4.526 1.18l-3.713-1.018.025 4.299c.164 1.681-.869 3.246-2.322 4.084-1.452.839-3.324.951-4.698-.031l-3.691-2.159-.95 3.68c-.394 1.771-1.771 2.952-3.345 3.542-1.771.394-3.346-.196-4.723-1.377l-2.494-2.607-1.991 3.523c-.842 1.615-2.485 2.403-4.166 2.566-1.821-.078-3.195-1.06-4.224-2.564l-1.988-3.627-2.651 2.709c-1.377 1.181-2.951 1.771-4.722 1.377-1.575-.59-2.952-1.771-3.346-3.542l-.897-3.476-3.388 2.006c-1.644.788-3.324.951-4.94.109-1.374-.982-2.404-2.486-2.325-4.306l.039-4.24-3.837 1.052c-1.575.591-3.346 0-4.526-1.18-1.181-1.181-1.771-2.952-1.181-4.526l1.018-3.712-4.103.024c-1.681.164-3.245-.87-4.084-2.322-.839-1.453-.951-3.324.031-4.698l2.134-3.647-3.851-.994c-1.771-.394-2.952-1.771-3.542-3.345a5.124 5.124 0 0 1 1.377-4.723l2.643-2.585-3.362-1.9c-1.616-.842-2.403-2.486-2.567-4.166a5.148 5.148 0 0 1 2.564-4.224l3.596-2.024-2.874-2.811c-1.18-1.181-1.771-2.952-1.377-4.526.59-1.575 1.771-2.952 3.542-3.346l3.789-.977-2.072-3.499c-.838-1.453-.951-3.324-.16-4.749.983-1.374 2.486-2.404 4.307-2.325l4.043.037-1.052-3.836c-.59-1.574 0-3.345 1.181-4.525 1.18-1.181 2.951-1.771 4.526-1.181l3.908 1.071-.025-4.156c-.163-1.681.87-3.246 2.322-4.084 1.453-.839 3.325-.951 4.699.031l3.476 2.034.968-3.751c.394-1.771 1.771-2.952 3.346-3.542 1.771-.394 3.345.196 4.722 1.377l2.71 2.77 1.971-3.489c.843-1.616 2.486-2.404 4.167-2.567 1.82.078 3.194 1.06 4.224 2.564l1.901 3.378z" fill="#FFD43B"/><path d="M274.686 121.943l2.541-2.657c1.378-1.18 2.952-1.771 4.723-1.377 1.574.59 2.952 1.771 3.345 3.542l.979 3.794 3.503-2.128c1.643-.787 3.324-.951 4.94-.109 1.374.983 2.403 2.486 2.325 4.307l-.037 3.989 3.639-.998c1.574-.59 3.345 0 4.526 1.181 1.181 1.18 1.771 2.951 1.181 4.526l-1.072 3.909 4.353-.026c1.68-.163 3.245.87 4.084 2.322.838 1.453.951 3.325-.031 4.699l-2.06 3.52 3.581.925c1.771.393 2.951 1.771 3.542 3.345.393 1.574-.197 3.345-1.378 4.526l-2.825 2.764 3.741 2.113c1.616.843 2.403 2.486 2.567 4.167-.028 1.63-1.061 3.194-2.513 4.033l-3.622 2.038 2.652 2.595a5.126 5.126 0 0 1 1.378 4.723c-.591 1.574-1.771 2.951-3.542 3.345l-3.577.923 2.107 3.559a5.146 5.146 0 0 1 .108 4.94c-.982 1.374-2.485 2.403-4.306 2.325l-4.186-.039.999 3.641c.59 1.574 0 3.345-1.181 4.526-1.181 1.18-2.952 1.771-4.526 1.18l-3.713-1.017.025 4.298c.164 1.681-.869 3.246-2.322 4.085-1.452.838-3.324.951-4.698-.031l-3.691-2.16-.95 3.681c-.393 1.771-1.771 2.951-3.345 3.542-1.771.393-3.345-.197-4.723-1.378l-2.494-2.607-1.991 3.523c-.842 1.616-2.485 2.403-4.166 2.567-1.821-.079-3.195-1.061-4.224-2.565l-1.988-3.627-2.65 2.709c-1.378 1.181-2.952 1.771-4.723 1.378-1.574-.591-2.952-1.771-3.345-3.542l-.897-3.477-3.389 2.006c-1.643.788-3.324.951-4.94.109-1.374-.982-2.404-2.486-2.325-4.306l.039-4.24-3.837 1.052c-1.574.591-3.345 0-4.526-1.18-1.181-1.181-1.771-2.952-1.181-4.526l1.018-3.712-4.103.024c-1.68.164-3.245-.869-4.084-2.322-.838-1.452-.951-3.324.031-4.698l2.134-3.647-3.851-.994c-1.771-.394-2.952-1.771-3.542-3.345a5.126 5.126 0 0 1 1.377-4.723l2.643-2.585-3.362-1.9c-1.616-.842-2.403-2.485-2.567-4.166a5.148 5.148 0 0 1 2.564-4.224l3.596-2.024-2.874-2.811c-1.18-1.181-1.771-2.952-1.377-4.526.59-1.574 1.771-2.952 3.542-3.345l3.789-.978-2.072-3.499c-.838-1.453-.95-3.324-.159-4.749.982-1.374 2.485-2.404 4.306-2.325l4.043.037-1.052-3.835c-.59-1.575 0-3.346 1.181-4.526 1.181-1.181 2.952-1.771 4.526-1.181l3.908 1.072-.024-4.157c-.164-1.681.869-3.245 2.322-4.084 1.452-.839 3.324-.951 4.698.031l3.477 2.034.968-3.751c.393-1.771 1.771-2.952 3.345-3.542 1.771-.394 3.345.197 4.723 1.377l2.709 2.77 1.972-3.489c.842-1.616 2.485-2.403 4.166-2.567 1.821.079 3.195 1.061 4.224 2.564l1.901 3.379z" fill="url(#paint0_linear_2101_5379)"/><path d="M296.322 141.054c-2.605-2.719-9.968 0-18.918 6.117-2.832-1.133-5.89-1.699-8.949-1.699-13.027 0-23.562 10.535-23.562 23.449 0 3.058.679 6.117 1.812 8.949-6.117 8.949-8.836 16.313-6.23 18.918 2.718 2.719 10.082 0 19.031-6.117 2.832 1.133 5.89 1.812 8.949 1.812 13.027 0 23.449-10.648 23.449-23.562 0-3.059-.566-6.117-1.699-8.949 6.117-8.95 8.836-16.313 6.117-18.918zm-49.617 49.617c-.906-.906.227-3.625 2.832-7.59a23.653 23.653 0 0 0 4.758 4.758c-3.965 2.605-6.684 3.738-7.59 2.832zm12.234-6.344c-5.21-3.172-8.722-8.836-8.722-15.406 0-9.969 8.156-18.125 18.125-18.125 6.57 0 12.234 3.512 15.406 8.723-3.059 3.964-7.137 8.496-11.781 13.14-4.531 4.531-9.063 8.61-13.028 11.668zm9.516 2.719c-1.246 0-2.492-.113-3.738-.34 3.965-3.172 7.703-6.57 11.328-10.082 3.512-3.625 6.91-7.363 10.082-11.328.227 1.246.453 2.492.453 3.625 0 10.082-8.156 18.125-18.125 18.125zm14.047-36.93c3.965-2.605 6.797-3.738 7.703-2.832.906.906-.34 3.625-2.945 7.59a23.73 23.73 0 0 0-4.758-4.758z" fill="#FAB005"/><defs><linearGradient id="paint0_linear_2101_5379" x1="304.068" y1="202.284" x2="234.068" y2="136.284" gradientUnits="userSpaceOnUse"><stop stop-color="#FFD43B"/><stop offset=".255" stop-color="#fff"/><stop offset="1" stop-color="#FFD43B" stop-opacity="0"/></linearGradient></defs></svg>